PathFileType	4	(X/Y/Z)	RBDS026\RBDS026runT35.trc
DataRate	CameraRate	NumFrames	NumMarkers	Units	OrigDataRate	OrigDataStartFrame	OrigNumFrames
150.000000	150.000000	5	33	mm	150.000000	562	4500
Frame#	Time	L.ASIS			L.Heel.Bottom			L.Heel.Lateral			L.Heel.Top			L.Iliac.Crest			L.MT1			L.MT5			L.PSIS			L.Shank.Bottom.Lateral			L.Shank.Bottom.Medial			L.Shank.Top.Lateral			L.Shank.Top.Medial			L.Thigh.Bottom.Lateral			L.Thigh.Bottom.Medial			L.Thigh.Top.Lateral			L.Thigh.Top.Medial			R.ASIS			R.ASY			R.Heel.Bottom			R.Heel.Lateral			R.Heel.Top			R.Iliac.Crest			R.MT1			R.MT5			R.PSIS			R.Shank.Bottom.Lateral			R.Shank.Bottom.Medial			R.Shank.Top.Lateral			R.Shank.Top.Medial			R.Thigh.Bottom.Lateral			R.Thigh.Bottom.Medial			R.Thigh.Top.Lateral			R.Thigh.Top.Medial			
		X1	Y1	Z1	X2	Y2	Z2	X3	Y3	Z3	X4	Y4	Z4	X5	Y5	Z5	X6	Y6	Z6	X7	Y7	Z7	X8	Y8	Z8	X9	Y9	Z9	X10	Y10	Z10	X11	Y11	Z11	X12	Y12	Z12	X13	Y13	Z13	X14	Y14	Z14	X15	Y15	Z15	X16	Y16	Z16	X17	Y17	Z17	X18	Y18	Z18	X19	Y19	Z19	X20	Y20	Z20	X21	Y21	Z21	X22	Y22	Z22	X23	Y23	Z23	X24	Y24	Z24	X25	Y25	Z25	X26	Y26	Z26	X27	Y27	Z27	X28	Y28	Z28	X29	Y29	Z29	X30	Y30	Z30	X31	Y31	Z31	X32	Y32	Z32	X33	Y33	Z33	

563	3.746666666666667	2083.903718871967	989.2551412034212	918.1034610237427	1956.150679760517	29.62506456080722	1031.70031957892	1982.798398222233	49.03633933510845	979.9725946072167	1968.393126596887	76.12792733105969	1031.375439130967	1995.9538508973	1057.115986390548	879.6360413977668	2186.518853284651	43.79807475763965	1029.104213706745	2127.642800859625	40.04421677272724	928.3866648397177	1914.96216315751	1027.708301647365	1007.119408316206	2062.576237986491	152.2021732318014	949.0357775425522	2018.704213994763	170.3604403734129	968.1076096678579	2082.799092375988	223.9508772180944	917.0763899565032	2037.745385785488	245.9513312322081	934.8919925016082	2109.437857165023	601.7668568246327	869.0475393968558	2053.786685847783	580.6209759098274	910.5306277604135	2059.30324696632	697.9979986022887	850.4072244590335	2007.485712478541	678.6623573499982	892.1759045288377	2093.813002402917	962.4933985793336	1155.81416697489	1563.639695290362	370.7505295357766	1112.574935706354	1575.945244983109	550.8236217184801	1047.653375163096	1579.198412019869	529.3759868180274	1102.447942127212	1615.310788583132	528.9900488934878	1056.134205608543	2048.466732252818	1034.561807145411	1201.188186535336	1514.047140199149	333.9599998022035	1069.129459910543	1506.398147853668	394.386600338218	1162.998116716782	1923.858121397714	1019.356203923901	1104.474962714049	1672.551461884956	471.3293091118617	1147.117049738532	1678.393751387989	510.2780450326105	1108.612473668866	1750.097398771774	484.027479444116	1169.227061994522	1755.086471589226	520.5919394593321	1130.454537605306	2030.394013344992	541.495847699981	1222.441000779923	1967.654845686193	539.9038134184466	1187.451716681671	2022.905369162698	651.5709681633396	1231.169700779315	1960.119245663003	648.9001971725246	1203.20506786634	
564	3.753333333333333	2082.013202301041	986.53334242085	917.1433632724995	1932.956361673999	30.016843777046	1031.654978728604	1959.622497059215	49.64082858221585	979.9675710929909	1945.182036718831	76.55160292914515	1031.381660925679	1993.423795662726	1053.381350296196	879.0206996387118	2162.951243943962	44.69248177444098	1028.900834838405	2104.287010966119	40.73360319780734	928.4031174777474	1913.028076038499	1025.570924600006	1007.170030987484	2042.54960213585	151.7548582695703	949.1447710078023	1999.268088614245	171.5426138883953	967.8871936694446	2065.586282124018	222.702692239545	917.1985058339492	2021.197894828642	246.3443772186698	934.6897853751416	2103.044098009611	597.7868262212672	869.0565370899127	2047.38299224093	577.5612059670483	911.0536224258465	2054.180930047457	694.6594871267374	850.4969368721914	2002.341699175667	676.1257937520759	892.663007062153	2091.245197439263	959.5285899802097	1156.012255613301	1580.652750761754	368.1136149474117	1115.979846193503	1587.603217181229	548.6605248482452	1052.413768642224	1592.86677415116	527.0765239176673	1107.068596532029	1627.559615180223	527.4115355118844	1060.089434680124	2043.473374439941	1031.572051010001	1201.073200908307	1530.624573601003	330.7515893742483	1073.408011745055	1524.208741409616	390.2700617681813	1168.20602706777	1921.428450494356	1016.919170103459	1104.125353620886	1688.078888196182	469.5084983736076	1149.643580570904	1693.39930901979	508.6851572774498	1111.380501923907	1765.87266622653	482.2017482103739	1170.930094168328	1770.374640516817	518.8615847064334	1132.197895017437	2042.533021448973	540.0700020560124	1221.558257715849	1979.595118729862	536.2928021579322	1187.119658366183	2031.218290707303	649.7713683934861	1230.635441506013	1968.275926446026	644.8944101890864	1203.330403492052	
565	3.76	2080.322995128702	984.3089252028389	916.2620700140103	1909.704667481133	30.23608476955516	1031.548705275716	1936.329745945735	50.01405751905588	979.8457095134733	1921.834239398279	76.81401011574046	1031.233949369614	1990.965480463891	1050.576657993681	878.4809894496043	2139.288025899811	45.58240593992936	1028.511151924388	2080.842657018533	41.18319557416121	928.2644984165922	1911.306447745493	1024.175450245568	1007.015422721912	2021.949073097162	151.2399620705556	949.042742553284	1979.29183148479	172.4655380538536	967.5494198131778	2047.47037367831	221.3763705926674	917.1720945523459	2003.778555874708	246.4664501973484	934.4312733570688	2095.54420695421	593.9638149672465	869.0706742673908	2039.649100866227	574.8407017146228	911.3422879176709	2048.398103884056	691.6936729604338	850.6095253416066	1996.414762955816	674.1448296098741	893.0760533851064	2088.720199620747	957.8281651811142	1156.329073155882	1598.302598326209	364.2580461454131	1119.207464048236	1598.648985035755	545.2674277300173	1057.286107683554	1606.061475422507	523.5264418751265	1111.707738003596	1639.298212012379	524.8855419707655	1064.14909004867	2038.2163480802	1029.884463249007	1200.913417726137	1548.203639579247	326.0429210072626	1077.347407044554	1542.558260183246	384.4440934070532	1173.13084736716	1919.171962788444	1015.408536802047	1103.666991275424	1703.560555700935	466.9703992840864	1152.058427100305	1708.09527354749	506.5495593245406	1114.15834065634	1781.477548892921	480.1494050930203	1172.6008640446	1785.219171546169	517.0784901244498	1134.05755848529	2054.785686365509	539.9946317084233	1220.439515035003	1991.7764416207	533.9960963074448	1186.477324961008	2039.557861496965	649.1597284044683	1229.949708731335	1976.590823327376	642.0368742370267	1203.218264889109	
566	3.766666666666667	2078.87764238198	982.5702555244752	915.4831390285134	1886.356593636719	30.3554530893589	1031.407523325943	1912.900974342791	50.23740010714843	979.6461320625257	1898.363402549847	76.98594362508004	1030.992573054123	1988.711652684278	1048.691310694883	877.9985097512834	2115.5669364615	46.30069362382578	1028.018896187123	2057.298130911272	41.37332032139087	928.0271886449143	1909.836747993602	1023.509399016834	1006.631362708564	2000.858149041612	150.6999220120435	948.8099823416601	1958.835946114626	173.1801565679806	967.1664105052521	2028.553445924053	220.039756031988	917.0575556889738	1985.567939894529	246.3964793346217	934.1626889975623	2086.998687839107	590.4080266412022	869.0892567912186	2030.672461555043	572.5516948215494	911.4081485984677	2041.987169155236	689.1720418392964	850.7435037370474	1989.753529460681	672.7744215611508	893.4144778101258	2086.31763562425	957.3943444129011	1156.732333326064	1616.468100449585	359.2573708085264	1122.235583944815	1609.12395753268	540.5667993711022	1062.133678847917	1618.770393477649	518.7073242237487	1116.232869728193	1650.541521388341	521.3456233129023	1068.176688900375	2032.93709524039	1029.399277005068	1200.713411474404	1566.675590843476	319.8964694333833	1080.951722782081	1561.354437827282	377.066405260704	1177.713704670201	1917.129167294013	1014.790393637335	1103.078404678753	1718.891214988235	463.7104732345221	1154.322452090096	1722.387556924704	503.842029175973	1116.89844753425	1796.800574164099	477.8659584361467	1174.210675663507	1799.520684155317	515.2206297497503	1136.004041985652	2067.016106840932	541.2796799255264	1219.116043410241	2004.058422743996	533.0416245251232	1185.560664255227	2047.832399188142	649.7454442587107	1229.132402725495	1984.965715261364	640.3577195918364	1202.895683462884	
567	3.773333333333333	2077.706720000171	981.3078316955612	914.824512347085	1862.886253797502	30.48144127825305	1031.248081044673	1889.332771322946	50.42465453949541	979.3994606206739	1874.785362083077	77.16990111712732	1030.701675706992	1986.812763296066	1047.678265046968	877.5493652544769	2091.809101335698	46.76607067352483	1027.505495285204	2033.645641883528	41.33542914127928	927.7518575585311	1908.650776126748	1023.553736851974	1006.01009408398	1979.356416236687	150.2238243348197	948.5179267453799	1937.96266664302	173.7895983255148	966.8030415776077	2008.942323723545	218.8031797328483	916.9105607951298	1966.65597830256	246.2615649208351	933.9274551064317	2077.482104432789	587.2415910791487	869.1295130496304	2020.578290628588	570.8057528173439	911.3120338303376	2034.98929230676	687.168217102147	850.9125853687574	1982.429194999247	672.0764858454693	893.7094985934657	2084.112525860147	958.1614974934519	1157.182904139905	1635.05277497208	353.1981934835792	1125.0445113936	1619.104129933015	534.4899007996489	1066.831819862455	1631.022568478982	512.6071477376445	1120.528786951118	1661.333704961602	516.7273141029781	1072.047728226916	2027.881969068662	1029.971924654006	1200.476096782798	1585.946472991106	312.4032632430842	1084.235879281419	1580.536399632348	368.3112977070597	1181.912470802665	1915.333950296112	1015.017115233629	1102.344171340696	1733.994767359507	459.7349307783908	1156.407630902125	1736.211788187318	500.5261271669614	1119.555026913994	1811.75880369506	475.3425956863312	1175.728970032316	1813.210252376962	513.2449680838619	1137.99541587168	2079.094570872332	543.907563972543	1217.626292267728	2016.298876106681	533.431965949242	1184.423968719608	2055.964396819842	651.5176070704904	1228.208775641324	1993.308714304425	639.8690549226678	1202.407036938256	
